# Blender v2.79 (sub 0) OBJ File: 'sektion.blend'
# www.blender.org
mtllib sektion.mtl
o SEKTION_Cabinet
v -0.286000 -0.362000 -0.362000
v -0.286000 0.362000 -0.362000
v 0.305000 0.381000 -0.381000
v 0.305000 -0.381000 -0.381000
v -0.305000 -0.381000 -0.381000
v -0.305000 0.381000 -0.381000
v 0.305000 0.381000 0.381000
v 0.305000 -0.381000 0.381000
v -0.305000 -0.381000 0.381000
v -0.305000 0.381000 0.381000
v 0.305000 -0.362000 0.381000
v -0.286000 -0.362000 0.381000
v 0.305000 -0.362000 -0.362000
v -0.286000 0.362000 0.381000
v 0.305000 0.362000 -0.362000
v 0.305000 0.362000 0.381000
vn 1.0000 -0.0000 0.0000
vn 0.0000 0.0000 -1.0000
vn -0.0000 -0.0000 1.0000
vn -0.0000 -1.0000 -0.0000
vn -1.0000 0.0000 -0.0000
vn 0.0000 1.0000 0.0000
usemtl Material.006
s off
f 1//1 2//1 14//1 12//1
f 3//2 4//2 5//2 6//2
f 7//3 10//3 9//3 8//3 11//3 12//3 14//3 16//3
f 3//1 7//1 16//1 15//1 13//1 11//1 8//1 4//1
f 4//4 8//4 9//4 5//4
f 5//5 9//5 10//5 6//5
f 7//6 3//6 6//6 10//6
f 15//3 2//3 1//3 13//3
f 14//4 2//4 15//4 16//4
f 13//6 1//6 12//6 11//6
o Rear_bar_Cube.000
v -0.292304 -0.362018 0.380000
v -0.292304 -0.362018 0.382000
v -0.292304 0.362042 0.380000
v -0.292304 0.362042 0.382000
v -0.265316 -0.362018 0.380000
v -0.265316 -0.362018 0.382000
v -0.265316 0.362042 0.380000
v -0.265316 0.362042 0.382000
v -0.290766 -0.362113 0.380000
v -0.290766 -0.362113 0.382000
v -0.266854 -0.362113 0.380000
v -0.266854 -0.362113 0.382000
v -0.290766 -0.362113 0.380000
v -0.290766 -0.362113 0.382000
v -0.266854 -0.362113 0.380000
v -0.266854 -0.362113 0.382000
v -0.290766 -0.380979 0.380000
v -0.290766 -0.380979 0.382000
v -0.266854 -0.380979 0.380000
v -0.266854 -0.380979 0.382000
v -0.290849 0.362113 0.380000
v -0.290849 0.362113 0.382000
v -0.266771 0.362113 0.380000
v -0.266771 0.362113 0.382000
v -0.290849 0.381007 0.380000
v -0.290849 0.381007 0.382000
v -0.266771 0.381007 0.380000
v -0.266771 0.381007 0.382000
vn -1.0000 0.0000 0.0000
vn 0.0486 0.9988 0.0000
vn 1.0000 0.0000 0.0000
vn 0.0000 0.0000 1.0000
vn 0.0000 0.0000 -1.0000
vn 0.0613 -0.9981 0.0000
vn -0.0613 -0.9981 0.0000
vn 0.0000 -1.0000 0.0000
vn -0.0486 0.9988 0.0000
vn 0.0000 1.0000 0.0000
usemtl None
s off
f 17//7 18//7 20//7 19//7
f 24//8 23//8 39//8 40//8
f 23//9 24//9 22//9 21//9
f 22//10 18//10 26//10 28//10
f 19//11 23//11 21//11 17//11
f 24//10 20//10 18//10 22//10
f 28//10 26//10 30//10 32//10
f 21//12 22//12 28//12 27//12
f 18//13 17//13 25//13 26//13
f 17//11 21//11 27//11 25//11
f 29//11 31//11 35//11 33//11
f 27//10 28//10 32//10 31//10
f 25//10 27//10 31//10 29//10
f 26//10 25//10 29//10 30//10
f 35//14 36//14 34//14 33//14
f 30//7 29//7 33//7 34//7
f 32//10 30//10 34//10 36//10
f 31//9 32//9 36//9 35//9
f 40//9 39//9 43//9 44//9
f 23//11 19//11 37//11 39//11
f 20//10 24//10 40//10 38//10
f 19//15 20//15 38//15 37//15
f 41//16 42//16 44//16 43//16
f 39//11 37//11 41//11 43//11
f 38//10 40//10 44//10 42//10
f 37//7 38//7 42//7 41//7
o Front_bar_Cube.005
v 0.271506 -0.362018 0.380000
v 0.271506 -0.362018 0.382000
v 0.271506 0.362042 0.380000
v 0.271506 0.362042 0.382000
v 0.298494 -0.362018 0.380000
v 0.298494 -0.362018 0.382000
v 0.298494 0.362042 0.380000
v 0.298494 0.362042 0.382000
v 0.273044 -0.362113 0.380000
v 0.273044 -0.362113 0.382000
v 0.296956 -0.362113 0.380000
v 0.296956 -0.362113 0.382000
v 0.273044 -0.362113 0.380000
v 0.273044 -0.362113 0.382000
v 0.296956 -0.362113 0.380000
v 0.296956 -0.362113 0.382000
v 0.273044 -0.380979 0.380000
v 0.273044 -0.380979 0.382000
v 0.296956 -0.380979 0.380000
v 0.296956 -0.380979 0.382000
v 0.272961 0.362113 0.380000
v 0.272961 0.362113 0.382000
v 0.297039 0.362113 0.380000
v 0.297039 0.362113 0.382000
v 0.272961 0.381007 0.380000
v 0.272961 0.381007 0.382000
v 0.297039 0.381007 0.380000
v 0.297039 0.381007 0.382000
vn -1.0000 0.0000 0.0000
vn 0.0486 0.9988 0.0000
vn 1.0000 0.0000 0.0000
vn 0.0000 0.0000 1.0000
vn 0.0000 0.0000 -1.0000
vn 0.0613 -0.9981 0.0000
vn -0.0613 -0.9981 0.0000
vn 0.0000 -1.0000 0.0000
vn -0.0486 0.9988 0.0000
vn 0.0000 1.0000 0.0000
usemtl None
s off
f 45//17 46//17 48//17 47//17
f 52//18 51//18 67//18 68//18
f 51//19 52//19 50//19 49//19
f 50//20 46//20 54//20 56//20
f 47//21 51//21 49//21 45//21
f 52//20 48//20 46//20 50//20
f 56//20 54//20 58//20 60//20
f 49//22 50//22 56//22 55//22
f 46//23 45//23 53//23 54//23
f 45//21 49//21 55//21 53//21
f 57//21 59//21 63//21 61//21
f 55//20 56//20 60//20 59//20
f 53//20 55//20 59//20 57//20
f 54//20 53//20 57//20 58//20
f 63//24 64//24 62//24 61//24
f 58//17 57//17 61//17 62//17
f 60//20 58//20 62//20 64//20
f 59//19 60//19 64//19 63//19
f 68//19 67//19 71//19 72//19
f 51//21 47//21 65//21 67//21
f 48//20 52//20 68//20 66//20
f 47//25 48//25 66//25 65//25
f 69//26 70//26 72//26 71//26
f 67//21 65//21 69//21 71//21
f 66//20 68//20 72//20 70//20
f 65//17 66//17 70//17 69//17
